<svg width="180" height="43" viewBox="0 0 180 43" fill="none" xmlns="http://www.w3.org/2000/svg">
<g filter="url(#filter0_d_1_4)">
<path d="M8.32001 31.2H35.68C35.68 32.576 35.328 33.488 34.624 33.936C33.92 34.352 33.152 34.56 32.32 34.56H8.32001C7.52001 34.56 6.78401 34.48 6.11201 34.32C5.47201 34.128 4.96001 33.76 4.57601 33.216C4.19201 32.672 4.00001 31.84 4.00001 30.72C4.00001 25.056 4.60801 20.272 5.82401 16.368C7.04001 12.432 8.67201 9.264 10.72 6.864C12.8 4.464 15.104 2.72 17.632 1.632C20.192 0.544 22.8 0 25.456 0C26.544 0 27.248 0.272 27.568 0.816001C27.888 1.36 28.048 1.952 28.048 2.592V3.84H25.456C21.808 3.84 18.704 4.928 16.144 7.104C13.584 9.248 11.632 12.368 10.288 16.464C8.97601 20.528 8.32001 25.44 8.32001 31.2ZM59.041 1.44V31.2H74.401C74.401 32.576 74.049 33.488 73.345 33.936C72.641 34.352 71.873 34.56 71.041 34.56H57.601C56.897 34.56 56.241 34.384 55.633 34.032C55.025 33.648 54.721 32.864 54.721 31.68V20.208H38.545V34.56H37.153C36.449 34.56 35.777 34.384 35.137 34.032C34.529 33.648 34.225 32.864 34.225 31.68V1.44C34.225 1.184 34.321 0.96 34.513 0.767999C34.705 0.575999 34.929 0.48 35.185 0.48H37.537C37.793 0.48 38.017 0.575999 38.209 0.767999C38.433 0.96 38.545 1.184 38.545 1.44V16.608H54.721V1.44C54.721 1.184 54.817 0.96 55.009 0.767999C55.201 0.575999 55.425 0.48 55.681 0.48H58.033C58.289 0.48 58.513 0.575999 58.705 0.767999C58.897 0.96 59.009 1.184 59.041 1.44ZM94.8318 31.2H111.776C111.776 32.576 111.424 33.488 110.72 33.936C110.016 34.352 109.248 34.56 108.416 34.56H93.3918C92.6878 34.56 92.0318 34.384 91.4238 34.032C90.8158 33.648 90.5118 32.864 90.5118 31.68V20.208H75.9198C75.5038 21.872 75.1678 23.664 74.9118 25.584C74.6878 27.472 74.5758 29.504 74.5758 31.68C74.5758 32.864 74.3198 33.648 73.8078 34.032C73.2958 34.384 72.6718 34.56 71.9358 34.56H70.2558V31.68C70.2558 26.688 70.7518 22.4 71.7438 18.816C72.7678 15.2 74.1278 12.176 75.8238 9.744C77.5518 7.312 79.4718 5.392 81.5838 3.984C83.7278 2.544 85.9358 1.52 88.2078 0.912C90.5118 0.304 92.7198 0 94.8318 0C95.9198 0 96.6238 0.272 96.9438 0.816001C97.2638 1.36 97.4238 1.952 97.4238 2.592V3.84H94.8318V31.2ZM90.5118 4.32C87.6958 4.96 85.1038 6.288 82.7358 8.304C80.3998 10.32 78.5278 13.088 77.1198 16.608H90.5118V4.32ZM132.238 31.2H149.182C149.182 32.576 148.83 33.488 148.126 33.936C147.422 34.352 146.654 34.56 145.822 34.56H130.798C130.094 34.56 129.438 34.384 128.83 34.032C128.222 33.648 127.918 32.864 127.918 31.68V20.208H113.326C112.91 21.872 112.574 23.664 112.318 25.584C112.094 27.472 111.982 29.504 111.982 31.68C111.982 32.864 111.726 33.648 111.214 34.032C110.702 34.384 110.078 34.56 109.342 34.56H107.662V31.68C107.662 26.688 108.158 22.4 109.15 18.816C110.174 15.2 111.534 12.176 113.23 9.744C114.958 7.312 116.878 5.392 118.99 3.984C121.134 2.544 123.342 1.52 125.614 0.912C127.918 0.304 130.126 0 132.238 0C133.326 0 134.03 0.272 134.35 0.816001C134.67 1.36 134.83 1.952 134.83 2.592V3.84H132.238V31.2ZM127.918 4.32C125.102 4.96 122.51 6.288 120.142 8.304C117.806 10.32 115.934 13.088 114.526 16.608H127.918V4.32ZM148.476 31.2H175.836C175.836 32.576 175.484 33.488 174.78 33.936C174.076 34.352 173.308 34.56 172.476 34.56H148.476C147.676 34.56 146.94 34.48 146.268 34.32C145.628 34.128 145.116 33.76 144.732 33.216C144.348 32.672 144.156 31.84 144.156 30.72C144.156 25.056 144.764 20.272 145.98 16.368C147.196 12.432 148.828 9.264 150.876 6.864C152.956 4.464 155.26 2.72 157.788 1.632C160.348 0.544 162.956 0 165.612 0C166.7 0 167.404 0.272 167.724 0.816001C168.044 1.36 168.204 1.952 168.204 2.592V3.84H165.612C161.964 3.84 158.86 4.928 156.3 7.104C153.74 9.248 151.788 12.368 150.444 16.464C149.132 20.528 148.476 25.44 148.476 31.2Z" fill="#A3A7F0"/>
</g>
<defs>
<filter id="filter0_d_1_4" x="0" y="0" width="179.836" height="42.56" filterUnits="userSpaceOnUse" color-interpolation-filters="sRGB">
<feFlood flood-opacity="0" result="BackgroundImageFix"/>
<feColorMatrix in="SourceAlpha" type="matrix" values="0 0 0 0 0 0 0 0 0 0 0 0 0 0 0 0 0 0 127 0" result="hardAlpha"/>
<feOffset dy="4"/>
<feGaussianBlur stdDeviation="2"/>
<feComposite in2="hardAlpha" operator="out"/>
<feColorMatrix type="matrix" values="0 0 0 0 0 0 0 0 0 0 0 0 0 0 0 0 0 0 0.25 0"/>
<feBlend mode="normal" in2="BackgroundImageFix" result="effect1_dropShadow_1_4"/>
<feBlend mode="normal" in="SourceGraphic" in2="effect1_dropShadow_1_4" result="shape"/>
</filter>
</defs>
</svg>
